<mxfile host="65bd71144e">
    <diagram id="l0--sVU_I2OrggM0Ua7Y" name="Page-1">
        <mxGraphModel dx="1718" dy="1131" grid="1" gridSize="10" guides="1" tooltips="1" connect="1" arrows="1" fold="1" page="1" pageScale="1" pageWidth="850" pageHeight="1100" math="0" shadow="0">
            <root>
                <mxCell id="0"/>
                <mxCell id="1" parent="0"/>
                <mxCell id="7" value="theProgram:Main" style="shape=umlLifeline;perimeter=lifelinePerimeter;whiteSpace=wrap;html=1;container=1;collapsible=0;recursiveResize=0;outlineConnect=0;fillColor=none;" parent="1" vertex="1">
                    <mxGeometry x="270" y="40" width="120" height="880" as="geometry"/>
                </mxCell>
                <mxCell id="6" value="" style="html=1;points=[];perimeter=orthogonalPerimeter;fillColor=#CCCCCC;" parent="7" vertex="1">
                    <mxGeometry x="55" y="70" width="10" height="50" as="geometry"/>
                </mxCell>
                <mxCell id="31" value="" style="html=1;points=[];perimeter=orthogonalPerimeter;fillColor=#CCCCCC;" vertex="1" parent="7">
                    <mxGeometry x="55" y="168" width="10" height="52" as="geometry"/>
                </mxCell>
                <mxCell id="13" value="&lt;font style=&quot;font-size: 10px&quot;&gt;theController:MainWindowController&lt;/font&gt;" style="shape=umlLifeline;perimeter=lifelinePerimeter;html=1;container=1;collapsible=0;recursiveResize=0;outlineConnect=0;fillColor=none;whiteSpace=wrap;align=center;" vertex="1" parent="1">
                    <mxGeometry x="430" y="40" width="170" height="880" as="geometry"/>
                </mxCell>
                <mxCell id="14" value="" style="html=1;points=[];perimeter=orthogonalPerimeter;fillColor=#CCCCCC;" vertex="1" parent="13">
                    <mxGeometry x="80" y="80" width="10" height="30" as="geometry"/>
                </mxCell>
                <mxCell id="37" value="" style="html=1;points=[];perimeter=orthogonalPerimeter;fillColor=#CCCCCC;" vertex="1" parent="13">
                    <mxGeometry x="80" y="178" width="10" height="102" as="geometry"/>
                </mxCell>
                <mxCell id="104" value="" style="edgeStyle=elbowEdgeStyle;fontSize=12;html=1;endArrow=blockThin;endFill=1;" edge="1" parent="13">
                    <mxGeometry width="160" relative="1" as="geometry">
                        <mxPoint x="90" y="693" as="sourcePoint"/>
                        <mxPoint x="710" y="693" as="targetPoint"/>
                    </mxGeometry>
                </mxCell>
                <mxCell id="105" value="updateViews()" style="edgeLabel;html=1;align=center;verticalAlign=middle;resizable=0;points=[];fontSize=9;" vertex="1" connectable="0" parent="104">
                    <mxGeometry x="-0.0573" y="-1" relative="1" as="geometry">
                        <mxPoint x="18" y="-11" as="offset"/>
                    </mxGeometry>
                </mxCell>
                <mxCell id="26" value="&lt;font style=&quot;font-size: 10px&quot;&gt;theEnvironment:Environment&lt;/font&gt;" style="shape=umlLifeline;perimeter=lifelinePerimeter;html=1;container=1;collapsible=0;recursiveResize=0;outlineConnect=0;fillColor=none;whiteSpace=wrap;align=center;" vertex="1" parent="1">
                    <mxGeometry x="640" y="40" width="170" height="880" as="geometry"/>
                </mxCell>
                <mxCell id="27" value="" style="html=1;points=[];perimeter=orthogonalPerimeter;fillColor=#CCCCCC;" vertex="1" parent="26">
                    <mxGeometry x="80" y="189" width="10" height="11" as="geometry"/>
                </mxCell>
                <mxCell id="98" value="&lt;font style=&quot;font-size: 10px&quot;&gt;:EnvironmentMember&lt;/font&gt;" style="shape=umlLifeline;perimeter=lifelinePerimeter;html=1;container=1;collapsible=0;recursiveResize=0;outlineConnect=0;fillColor=none;whiteSpace=wrap;align=center;" vertex="1" parent="1">
                    <mxGeometry x="850" y="40" width="170" height="880" as="geometry"/>
                </mxCell>
                <mxCell id="99" value="" style="html=1;points=[];perimeter=orthogonalPerimeter;fillColor=#CCCCCC;" vertex="1" parent="98">
                    <mxGeometry x="80" y="643" width="10" height="11" as="geometry"/>
                </mxCell>
                <mxCell id="100" value="&lt;font style=&quot;font-size: 10px&quot;&gt;theDisplayUtility:DisplayUtility&lt;/font&gt;" style="shape=umlLifeline;perimeter=lifelinePerimeter;html=1;container=1;collapsible=0;recursiveResize=0;outlineConnect=0;fillColor=none;whiteSpace=wrap;align=center;" vertex="1" parent="1">
                    <mxGeometry x="1060" y="40" width="170" height="880" as="geometry"/>
                </mxCell>
                <mxCell id="101" value="" style="html=1;points=[];perimeter=orthogonalPerimeter;fillColor=#CCCCCC;" vertex="1" parent="100">
                    <mxGeometry x="80" y="693" width="10" height="42" as="geometry"/>
                </mxCell>
                <mxCell id="108" value="views are updated" style="html=1;verticalAlign=bottom;endArrow=open;dashed=1;endSize=8;fontSize=9;" edge="1" parent="100">
                    <mxGeometry x="0.0022" relative="1" as="geometry">
                        <mxPoint x="80" y="735" as="sourcePoint"/>
                        <mxPoint x="-540" y="735" as="targetPoint"/>
                        <mxPoint as="offset"/>
                    </mxGeometry>
                </mxCell>
                <mxCell id="109" value="" style="edgeStyle=elbowEdgeStyle;fontSize=12;html=1;endArrow=blockThin;endFill=1;" edge="1" parent="100">
                    <mxGeometry width="160" relative="1" as="geometry">
                        <mxPoint x="-540" y="220" as="sourcePoint"/>
                        <mxPoint x="80" y="220" as="targetPoint"/>
                    </mxGeometry>
                </mxCell>
                <mxCell id="110" value="updateViews()" style="edgeLabel;html=1;align=center;verticalAlign=middle;resizable=0;points=[];fontSize=9;" vertex="1" connectable="0" parent="109">
                    <mxGeometry x="-0.0573" y="-1" relative="1" as="geometry">
                        <mxPoint x="18" y="-11" as="offset"/>
                    </mxGeometry>
                </mxCell>
                <mxCell id="111" value="" style="html=1;points=[];perimeter=orthogonalPerimeter;fillColor=#CCCCCC;" vertex="1" parent="100">
                    <mxGeometry x="80" y="220" width="10" height="42" as="geometry"/>
                </mxCell>
                <mxCell id="112" value="views are updated" style="html=1;verticalAlign=bottom;endArrow=open;dashed=1;endSize=8;fontSize=9;" edge="1" parent="100">
                    <mxGeometry x="0.0022" relative="1" as="geometry">
                        <mxPoint x="80" y="262" as="sourcePoint"/>
                        <mxPoint x="-540" y="262" as="targetPoint"/>
                        <mxPoint as="offset"/>
                    </mxGeometry>
                </mxCell>
                <mxCell id="10" value="" style="edgeStyle=elbowEdgeStyle;fontSize=12;html=1;endArrow=blockThin;endFill=1;entryX=0.012;entryY=-0.004;entryDx=0;entryDy=0;entryPerimeter=0;" parent="1" target="6" edge="1">
                    <mxGeometry width="160" relative="1" as="geometry">
                        <mxPoint x="141" y="110" as="sourcePoint"/>
                        <mxPoint x="270" y="110" as="targetPoint"/>
                    </mxGeometry>
                </mxCell>
                <mxCell id="11" value="Main.main()" style="edgeLabel;html=1;align=center;verticalAlign=middle;resizable=0;points=[];" parent="10" vertex="1" connectable="0">
                    <mxGeometry x="-0.1952" relative="1" as="geometry">
                        <mxPoint x="7" y="-10" as="offset"/>
                    </mxGeometry>
                </mxCell>
                <mxCell id="16" value="" style="edgeStyle=elbowEdgeStyle;fontSize=12;html=1;endArrow=blockThin;endFill=1;exitX=1.038;exitY=0.198;exitDx=0;exitDy=0;exitPerimeter=0;entryX=0;entryY=-0.001;entryDx=0;entryDy=0;entryPerimeter=0;" edge="1" parent="1" source="6" target="14">
                    <mxGeometry width="160" relative="1" as="geometry">
                        <mxPoint x="340" y="120" as="sourcePoint"/>
                        <mxPoint x="475" y="120" as="targetPoint"/>
                    </mxGeometry>
                </mxCell>
                <mxCell id="22" value="initialize()" style="edgeLabel;html=1;align=center;verticalAlign=middle;resizable=0;points=[];fontSize=10;" vertex="1" connectable="0" parent="16">
                    <mxGeometry x="-0.1348" relative="1" as="geometry">
                        <mxPoint x="9" y="-10" as="offset"/>
                    </mxGeometry>
                </mxCell>
                <mxCell id="21" value="window is shown" style="html=1;verticalAlign=bottom;endArrow=open;dashed=1;endSize=8;fontSize=10;exitX=0.003;exitY=0.998;exitDx=0;exitDy=0;exitPerimeter=0;entryX=1.005;entryY=0.797;entryDx=0;entryDy=0;entryPerimeter=0;" edge="1" parent="1" source="14" target="6">
                    <mxGeometry x="0.029" relative="1" as="geometry">
                        <mxPoint x="490" y="150" as="sourcePoint"/>
                        <mxPoint x="410" y="150" as="targetPoint"/>
                        <mxPoint as="offset"/>
                    </mxGeometry>
                </mxCell>
                <mxCell id="28" value="program is launched" style="html=1;verticalAlign=bottom;endArrow=open;dashed=1;endSize=8;fontSize=10;" edge="1" parent="1" source="7">
                    <mxGeometry relative="1" as="geometry">
                        <mxPoint x="280" y="160" as="sourcePoint"/>
                        <mxPoint x="145" y="160" as="targetPoint"/>
                    </mxGeometry>
                </mxCell>
                <mxCell id="38" value="" style="edgeStyle=elbowEdgeStyle;fontSize=12;html=1;endArrow=blockThin;endFill=1;entryX=0.1;entryY=-0.005;entryDx=0;entryDy=0;entryPerimeter=0;" edge="1" parent="1" target="37">
                    <mxGeometry width="160" relative="1" as="geometry">
                        <mxPoint x="335" y="218" as="sourcePoint"/>
                        <mxPoint x="490" y="218" as="targetPoint"/>
                    </mxGeometry>
                </mxCell>
                <mxCell id="39" value="btnEnvironmentSize.onAction()" style="edgeLabel;html=1;align=center;verticalAlign=middle;resizable=0;points=[];fontSize=9;" vertex="1" connectable="0" parent="38">
                    <mxGeometry x="-0.4359" relative="1" as="geometry">
                        <mxPoint x="40" y="-10" as="offset"/>
                    </mxGeometry>
                </mxCell>
                <mxCell id="29" value=":User" style="shape=umlLifeline;participant=umlActor;perimeter=lifelinePerimeter;whiteSpace=wrap;html=1;container=1;collapsible=0;recursiveResize=0;verticalAlign=top;spacingTop=-20;outlineConnect=0;fontSize=10;strokeColor=#000000;fillColor=none;" vertex="1" parent="1">
                    <mxGeometry x="130" y="40" width="20" height="880" as="geometry"/>
                </mxCell>
                <mxCell id="30" value="" style="html=1;points=[];perimeter=orthogonalPerimeter;fillColor=#CCCCCC;" vertex="1" parent="29">
                    <mxGeometry x="5" y="50" width="10" height="780" as="geometry"/>
                </mxCell>
                <mxCell id="35" value="" style="edgeStyle=elbowEdgeStyle;fontSize=12;html=1;endArrow=blockThin;endFill=1;entryX=0;entryY=-0.004;entryDx=0;entryDy=0;entryPerimeter=0;exitX=0.996;exitY=0.184;exitDx=0;exitDy=0;exitPerimeter=0;" edge="1" parent="1" target="31">
                    <mxGeometry width="160" relative="1" as="geometry">
                        <mxPoint x="144.9599999999998" y="207.3599999999999" as="sourcePoint"/>
                        <mxPoint x="300" y="208" as="targetPoint"/>
                    </mxGeometry>
                </mxCell>
                <mxCell id="36" value="&lt;span style=&quot;font-size: 9px;&quot;&gt;click button &quot;btnEnvironmentSize&quot;&lt;/span&gt;" style="edgeLabel;html=1;align=center;verticalAlign=middle;resizable=0;points=[];fontSize=9;" vertex="1" connectable="0" parent="35">
                    <mxGeometry x="-0.1399" relative="1" as="geometry">
                        <mxPoint x="20" y="-10" as="offset"/>
                    </mxGeometry>
                </mxCell>
                <mxCell id="40" value="" style="edgeStyle=elbowEdgeStyle;fontSize=12;html=1;endArrow=blockThin;endFill=1;" edge="1" parent="1">
                    <mxGeometry width="160" relative="1" as="geometry">
                        <mxPoint x="520" y="230" as="sourcePoint"/>
                        <mxPoint x="720" y="230" as="targetPoint"/>
                    </mxGeometry>
                </mxCell>
                <mxCell id="41" value="set environment size" style="edgeLabel;html=1;align=center;verticalAlign=middle;resizable=0;points=[];fontSize=9;" vertex="1" connectable="0" parent="40">
                    <mxGeometry x="-0.0573" y="-1" relative="1" as="geometry">
                        <mxPoint x="5" y="-11" as="offset"/>
                    </mxGeometry>
                </mxCell>
                <mxCell id="5" value="opt" style="shape=umlFrame;whiteSpace=wrap;html=1;fillColor=default;" parent="1" vertex="1">
                    <mxGeometry x="70" y="188" width="1130" height="152" as="geometry"/>
                </mxCell>
                <mxCell id="88" value="" style="html=1;points=[];perimeter=orthogonalPerimeter;fillColor=#CCCCCC;" vertex="1" parent="1">
                    <mxGeometry x="325" y="604" width="10" height="52" as="geometry"/>
                </mxCell>
                <mxCell id="89" value="" style="html=1;points=[];perimeter=orthogonalPerimeter;fillColor=#CCCCCC;" vertex="1" parent="1">
                    <mxGeometry x="510" y="614" width="10" height="216" as="geometry"/>
                </mxCell>
                <mxCell id="90" value="" style="html=1;points=[];perimeter=orthogonalPerimeter;fillColor=#CCCCCC;" vertex="1" parent="1">
                    <mxGeometry x="720" y="673" width="10" height="30" as="geometry"/>
                </mxCell>
                <mxCell id="91" value="" style="edgeStyle=elbowEdgeStyle;fontSize=12;html=1;endArrow=blockThin;endFill=1;" edge="1" parent="1">
                    <mxGeometry width="160" relative="1" as="geometry">
                        <mxPoint x="335" y="614" as="sourcePoint"/>
                        <mxPoint x="510" y="614" as="targetPoint"/>
                    </mxGeometry>
                </mxCell>
                <mxCell id="92" value="btnSimulationControl.onAction()" style="edgeLabel;html=1;align=center;verticalAlign=middle;resizable=0;points=[];fontSize=9;" vertex="1" connectable="0" parent="91">
                    <mxGeometry x="-0.4359" relative="1" as="geometry">
                        <mxPoint x="40" y="-10" as="offset"/>
                    </mxGeometry>
                </mxCell>
                <mxCell id="93" value="" style="edgeStyle=elbowEdgeStyle;fontSize=12;html=1;endArrow=blockThin;endFill=1;entryX=0;entryY=-0.004;entryDx=0;entryDy=0;entryPerimeter=0;exitX=0.996;exitY=0.184;exitDx=0;exitDy=0;exitPerimeter=0;" edge="1" target="88" parent="1">
                    <mxGeometry width="160" relative="1" as="geometry">
                        <mxPoint x="144.9599999999998" y="603.3600000000001" as="sourcePoint"/>
                        <mxPoint x="300" y="604" as="targetPoint"/>
                    </mxGeometry>
                </mxCell>
                <mxCell id="94" value="&lt;span style=&quot;font-size: 9px&quot;&gt;click button &quot;btnSimulationControl&quot;&lt;/span&gt;" style="edgeLabel;html=1;align=center;verticalAlign=middle;resizable=0;points=[];fontSize=9;" vertex="1" connectable="0" parent="93">
                    <mxGeometry x="-0.1399" relative="1" as="geometry">
                        <mxPoint x="20" y="-10" as="offset"/>
                    </mxGeometry>
                </mxCell>
                <mxCell id="95" value="" style="edgeStyle=elbowEdgeStyle;fontSize=12;html=1;endArrow=blockThin;endFill=1;" edge="1" parent="1">
                    <mxGeometry width="160" relative="1" as="geometry">
                        <mxPoint x="520" y="674" as="sourcePoint"/>
                        <mxPoint x="720" y="674" as="targetPoint"/>
                    </mxGeometry>
                </mxCell>
                <mxCell id="96" value="update()" style="edgeLabel;html=1;align=center;verticalAlign=middle;resizable=0;points=[];fontSize=9;" vertex="1" connectable="0" parent="95">
                    <mxGeometry x="-0.0573" y="-1" relative="1" as="geometry">
                        <mxPoint x="5" y="-11" as="offset"/>
                    </mxGeometry>
                </mxCell>
                <mxCell id="102" value="" style="edgeStyle=elbowEdgeStyle;fontSize=12;html=1;endArrow=blockThin;endFill=1;" edge="1" parent="1">
                    <mxGeometry width="160" relative="1" as="geometry">
                        <mxPoint x="730" y="684" as="sourcePoint"/>
                        <mxPoint x="930" y="684" as="targetPoint"/>
                    </mxGeometry>
                </mxCell>
                <mxCell id="103" value="update()" style="edgeLabel;html=1;align=center;verticalAlign=middle;resizable=0;points=[];fontSize=9;" vertex="1" connectable="0" parent="102">
                    <mxGeometry x="-0.0573" y="-1" relative="1" as="geometry">
                        <mxPoint x="5" y="-11" as="offset"/>
                    </mxGeometry>
                </mxCell>
                <mxCell id="107" value="loop" style="shape=umlFrame;whiteSpace=wrap;html=1;fillColor=default;" vertex="1" parent="1">
                    <mxGeometry x="440" y="654" width="760" height="136" as="geometry"/>
                </mxCell>
                <mxCell id="113" value="" style="html=1;points=[];perimeter=orthogonalPerimeter;fillColor=#CCCCCC;" vertex="1" parent="1">
                    <mxGeometry x="325" y="380" width="10" height="52" as="geometry"/>
                </mxCell>
                <mxCell id="114" value="" style="html=1;points=[];perimeter=orthogonalPerimeter;fillColor=#CCCCCC;" vertex="1" parent="1">
                    <mxGeometry x="510" y="390" width="10" height="102" as="geometry"/>
                </mxCell>
                <mxCell id="115" value="" style="html=1;points=[];perimeter=orthogonalPerimeter;fillColor=#CCCCCC;" vertex="1" parent="1">
                    <mxGeometry x="720" y="401" width="10" height="11" as="geometry"/>
                </mxCell>
                <mxCell id="116" value="" style="edgeStyle=elbowEdgeStyle;fontSize=12;html=1;endArrow=blockThin;endFill=1;entryX=0.1;entryY=-0.005;entryDx=0;entryDy=0;entryPerimeter=0;" edge="1" parent="1" target="114">
                    <mxGeometry width="160" relative="1" as="geometry">
                        <mxPoint x="335" y="390" as="sourcePoint"/>
                        <mxPoint x="490" y="390" as="targetPoint"/>
                    </mxGeometry>
                </mxCell>
                <mxCell id="117" value="btnCellSize.onAction()" style="edgeLabel;html=1;align=center;verticalAlign=middle;resizable=0;points=[];fontSize=9;" vertex="1" connectable="0" parent="116">
                    <mxGeometry x="-0.4359" relative="1" as="geometry">
                        <mxPoint x="40" y="-10" as="offset"/>
                    </mxGeometry>
                </mxCell>
                <mxCell id="118" value="" style="edgeStyle=elbowEdgeStyle;fontSize=12;html=1;endArrow=blockThin;endFill=1;entryX=0;entryY=-0.004;entryDx=0;entryDy=0;entryPerimeter=0;exitX=0.996;exitY=0.184;exitDx=0;exitDy=0;exitPerimeter=0;" edge="1" parent="1" target="113">
                    <mxGeometry width="160" relative="1" as="geometry">
                        <mxPoint x="144.96000000000004" y="379.3600000000001" as="sourcePoint"/>
                        <mxPoint x="300" y="380" as="targetPoint"/>
                    </mxGeometry>
                </mxCell>
                <mxCell id="119" value="&lt;span style=&quot;font-size: 9px&quot;&gt;click button &quot;btnCellSize&quot;&lt;/span&gt;" style="edgeLabel;html=1;align=center;verticalAlign=middle;resizable=0;points=[];fontSize=9;" vertex="1" connectable="0" parent="118">
                    <mxGeometry x="-0.1399" relative="1" as="geometry">
                        <mxPoint x="20" y="-10" as="offset"/>
                    </mxGeometry>
                </mxCell>
                <mxCell id="120" value="" style="edgeStyle=elbowEdgeStyle;fontSize=12;html=1;endArrow=blockThin;endFill=1;" edge="1" parent="1">
                    <mxGeometry width="160" relative="1" as="geometry">
                        <mxPoint x="520" y="401.9999999999998" as="sourcePoint"/>
                        <mxPoint x="720" y="401.9999999999998" as="targetPoint"/>
                    </mxGeometry>
                </mxCell>
                <mxCell id="121" value="set cell size" style="edgeLabel;html=1;align=center;verticalAlign=middle;resizable=0;points=[];fontSize=9;" vertex="1" connectable="0" parent="120">
                    <mxGeometry x="-0.0573" y="-1" relative="1" as="geometry">
                        <mxPoint x="5" y="-11" as="offset"/>
                    </mxGeometry>
                </mxCell>
                <mxCell id="122" value="opt" style="shape=umlFrame;whiteSpace=wrap;html=1;fillColor=default;" vertex="1" parent="1">
                    <mxGeometry x="70" y="360" width="1130" height="152" as="geometry"/>
                </mxCell>
                <mxCell id="123" value="" style="edgeStyle=elbowEdgeStyle;fontSize=12;html=1;endArrow=blockThin;endFill=1;" edge="1" parent="1">
                    <mxGeometry width="160" relative="1" as="geometry">
                        <mxPoint x="520" y="431.9999999999998" as="sourcePoint"/>
                        <mxPoint x="1139.9999999999995" y="431.9999999999998" as="targetPoint"/>
                    </mxGeometry>
                </mxCell>
                <mxCell id="124" value="updateViews()" style="edgeLabel;html=1;align=center;verticalAlign=middle;resizable=0;points=[];fontSize=9;" vertex="1" connectable="0" parent="123">
                    <mxGeometry x="-0.0573" y="-1" relative="1" as="geometry">
                        <mxPoint x="18" y="-11" as="offset"/>
                    </mxGeometry>
                </mxCell>
                <mxCell id="125" value="" style="html=1;points=[];perimeter=orthogonalPerimeter;fillColor=#CCCCCC;" vertex="1" parent="1">
                    <mxGeometry x="1140" y="432" width="10" height="42" as="geometry"/>
                </mxCell>
                <mxCell id="126" value="views are updated" style="html=1;verticalAlign=bottom;endArrow=open;dashed=1;endSize=8;fontSize=9;" edge="1" parent="1">
                    <mxGeometry x="0.0022" relative="1" as="geometry">
                        <mxPoint x="1139.9999999999995" y="474.0000000000002" as="sourcePoint"/>
                        <mxPoint x="520" y="474.0000000000002" as="targetPoint"/>
                        <mxPoint as="offset"/>
                    </mxGeometry>
                </mxCell>
                <mxCell id="127" value="opt" style="shape=umlFrame;whiteSpace=wrap;html=1;fillColor=default;" vertex="1" parent="1">
                    <mxGeometry x="70" y="560" width="1190" height="290" as="geometry"/>
                </mxCell>
            </root>
        </mxGraphModel>
    </diagram>
</mxfile>